<svg width="61" height="36" viewBox="0 0 61 36" fill="none" xmlns="http://www.w3.org/2000/svg">
<g filter="url(#filter0_i_317_277)">
<path d="M33.9544 17.9319C33.9544 21.8183 33.1987 25.0967 31.6874 27.7672C30.176 30.4262 28.1362 32.4433 25.568 33.8183C22.9999 35.1819 20.1362 35.8637 16.9771 35.8637C13.7953 35.8637 10.9203 35.1762 8.35214 33.8012C5.79532 32.4149 3.76123 30.3922 2.24987 27.7331C0.749867 25.0626 -0.000133038 21.7956 -0.000133038 17.9319C-0.000133038 14.0456 0.749867 10.7728 2.24987 8.11375C3.76123 5.44329 5.79532 3.42625 8.35214 2.06261C10.9203 0.68761 13.7953 0.000109673 16.9771 0.000109673C20.1362 0.000109673 22.9999 0.68761 25.568 2.06261C28.1362 3.42625 30.176 5.44329 31.6874 8.11375C33.1987 10.7728 33.9544 14.0456 33.9544 17.9319ZM24.2044 17.9319C24.2044 15.841 23.926 14.0797 23.3692 12.6478C22.8237 11.2047 22.0112 10.1137 20.9317 9.37511C19.8635 8.62511 18.5453 8.25011 16.9771 8.25011C15.409 8.25011 14.0851 8.62511 13.0055 9.37511C11.9374 10.1137 11.1249 11.2047 10.568 12.6478C10.0226 14.0797 9.74987 15.841 9.74987 17.9319C9.74987 20.0228 10.0226 21.7899 10.568 23.2331C11.1249 24.6649 11.9374 25.7558 13.0055 26.5058C14.0851 27.2444 15.409 27.6137 16.9771 27.6137C18.5453 27.6137 19.8635 27.2444 20.9317 26.5058C22.0112 25.7558 22.8237 24.6649 23.3692 23.2331C23.926 21.7899 24.2044 20.0228 24.2044 17.9319ZM31.6194 35.3865V0.477383H46.6875C49.2784 0.477383 51.5455 0.948974 53.4887 1.89216C55.4319 2.83534 56.9432 4.19329 58.0228 5.96602C59.1023 7.73875 59.6421 9.86375 59.6421 12.341C59.6421 14.841 59.0853 16.949 57.9716 18.6649C56.8694 20.3808 55.3182 21.6762 53.3182 22.5512C51.3296 23.4262 49.0057 23.8637 46.3466 23.8637H37.3466V16.5001H44.4375C45.5512 16.5001 46.5 16.3637 47.2841 16.091C48.0796 15.8069 48.6875 15.3581 49.108 14.7444C49.5398 14.1308 49.7557 13.3297 49.7557 12.341C49.7557 11.341 49.5398 10.5285 49.108 9.90352C48.6875 9.26716 48.0796 8.80125 47.2841 8.50579C46.5 8.19897 45.5512 8.04556 44.4375 8.04556H41.0966V35.3865H31.6194ZM52.0739 19.3637L60.8012 35.3865H50.5057L41.983 19.3637H52.0739Z" fill="#4C8D53"/>
</g>
<defs>
<filter id="filter0_i_317_277" x="0" y="0" width="60.8013" height="39.8638" filterUnits="userSpaceOnUse" color-interpolation-filters="sRGB">
<feFlood flood-opacity="0" result="BackgroundImageFix"/>
<feBlend mode="normal" in="SourceGraphic" in2="BackgroundImageFix" result="shape"/>
<feColorMatrix in="SourceAlpha" type="matrix" values="0 0 0 0 0 0 0 0 0 0 0 0 0 0 0 0 0 0 127 0" result="hardAlpha"/>
<feOffset dy="4"/>
<feGaussianBlur stdDeviation="2"/>
<feComposite in2="hardAlpha" operator="arithmetic" k2="-1" k3="1"/>
<feColorMatrix type="matrix" values="0 0 0 0 0 0 0 0 0 0 0 0 0 0 0 0 0 0 0.25 0"/>
<feBlend mode="normal" in2="shape" result="effect1_innerShadow_317_277"/>
</filter>
</defs>
</svg>
